<svg xmlns="http://www.w3.org/2000/svg" viewBox="0 0 1599 1599" style="color-scheme: light dark;"><path style="fill: light-dark(black, white);" d="M917.22266 98.244141S733.73176 180.53841 663.14453 249.84375c-33.44206 32.83475-60.40936 73.31023-75.37695 117.72266-27.38064 81.24493-48.26512 162.9625-27.10156 255.77343 19.38022 84.99027 84.87168 153.31246 139.74414 221.04688 56.91049 70.25016 107.80847 136.37192 126.1914 158.37698 23.75159 28.4315 55.05078 96.5488 55.05078 96.5488s-78.86666 15.6498-150.7539 15.2441c-46.42177-.2621-149.90625-35.5703-149.90625-35.5703s5.33055-38.3827 3.38867-133.81442c-1.94188-95.43173-140.4067-240.07075-237.98828-296.42579-97.58158-56.35505-131.33514-36.66312-164.30274-24.56054s-50.81773 35.81044-65.21289 116.02929 17.49496 122.47481 80.45703 209.19141c74.44772 102.50935 267.62891 229.51755 267.62891 229.51755s-56.60616 98.4017-180.39453 139.7422-148.78478-55.9912-149.06055-63.5195c-.19592-5.3486-39.179313-13.1329-42.345701-10.1621-4.057398 3.8068-35.936855 185.8861-34.724609 189.7109 5.137209 16.2087 41.175759 78.0092 127.88672 88.9277 79.2755 9.9822 157.02229-21.8128 236.29297-102.4785 70.89937-72.1471 121.95703-199.0273 121.95703-199.0273s142.26277 43.7809 197.33398 48.2754c66.03179 5.3891 153.27758 14.9684 197.33399-21.1738 8.4902-6.9651 12.62765-26.9775 13.55273-41.5 2.50383-39.3066 4.28008-82.1332 4.23438-99.0899-.10231-38.0069 1.23935-77.5098-11.01172-113.48828-26.73828-78.52386-103.46898-180.04085-132.11914-210.88476-46.85111-50.4385-88.06014-96.3687-131.27539-149.90625-36.76502-45.54662-68.51055-122.02366-69.44727-151.60156-.3425-10.8148 6.61678-32.8793 11.85742-42.34571 25.34989-45.79063 47.42714-65.95312 87.23242-99.9375 35.24887-30.09427 78.47519-51.93159 104.17383-67.7539 27.36655-16.84921 52.81033-53.2757 71.14063-81.30469 21.47461-32.83697 29.64258-93.162109 29.64258-93.162109M247.33594 726.41016c7.60704.0595 14.88954.69109 21.14062 1.94726 32.18468 6.46761 58.62401 30.65098 83.84571 51.66406 50.52587 42.09487 93.28092 93.44891 132.12109 146.51758 47.83119 65.35341 44.88672 137.20314 44.88672 137.20314s-63.43934-26.3345-91.46875-45.7344c-73.63314-50.96352-148.68029-105.51821-204.95703-177.85546-21.93942-28.20059-52.51918-76.70898-47.42774-94.85546 3.37028-12.01202 34.69138-19.09934 61.85938-18.88672"/><path style="fill: light-dark(black, white);" d="M980.04828 646.7991c3.86373-1.17526 22.51242-73.19013 35.33322-100.31047 2.622-5.54643 11.4978-9.45861 17.0678-6.88699 22.5722 10.42141 69.9474 25.90508 73.9602 23.65531 4.7366-2.65555 19.2872-73.07615 36.2316-104.80199 4.7939-8.97587 18.5639-13.50551 28.4462-11.07906 36.4589 8.95193 76.1432 20.47412 103.0054 34.1355 4.0983 2.08427 8.6313 6.2226 6.2881 12.2768-16.9516 43.79873-29.7329 85.76552-44.9151 128.75673-1.3161 3.72678-2.0637 9.14739-8.3842 8.38416-23.0092-2.77847-46.5801-10.28601-71.8642-13.77398-1.9996-.27585-5.1516-.93852-5.9887.89831-13.4501 29.51461-16.3983 72.78159-34.1355 103.30481-3.9311 6.76487-.4932 15.33819-41.3219 5.68926-23.8612-4.97441-42.156-8.50879-65.2767-16.46889-2.1749-.38913-5.6849-.0294-6.2881 2.09604-9.53152 33.58554-9.14976 61.40351-22.15812 103.90368-2.87233 9.38432-40.21335 3.1188-47.61004.59887-32.99405-11.24053-61.85874-30.13636-83.84159-40.42363-3.72738-1.74429-4.01944-7.99175-2.99434-11.97736 12.03887-46.80749 27.34015-95.16528 42.22022-137.73976 2.00313-5.73132 10.24203-9.69801 16.16945-8.38416 30.27442 6.71052 71.34077 29.58118 76.0563 28.14682"/></svg>